<svg id="Outline" height="512" viewBox="0 0 512 512" width="512" xmlns="http://www.w3.org/2000/svg"><path d="m400 496a8 8 0 0 0 8-8v-24h24a8 8 0 0 0 8-8v-368a8 8 0 0 0 -2.343-5.657l-64-64a8 8 0 0 0 -5.657-2.343h-256a8 8 0 0 0 -8 8v24h-24a8 8 0 0 0 -8 8v432a8 8 0 0 0 8 8zm-24-452.687 36.687 36.687h-36.687zm-256-11.313h240v56a8 8 0 0 0 8 8h56v352h-304zm-32 32h16v392a8 8 0 0 0 8 8h280v16h-304z"/><path d="m240 96h80a8 8 0 0 0 0-16h-80a8 8 0 0 0 0 16z"/><path d="m192 144h80a8 8 0 0 0 0-16h-80a8 8 0 0 0 0 16z"/><path d="m296 136a8 8 0 0 0 8 8h80a8 8 0 0 0 0-16h-80a8 8 0 0 0 -8 8z"/><path d="m160 192h48a8 8 0 0 0 0-16h-48a8 8 0 0 0 0 16z"/><path d="m240 368h-80a8 8 0 0 0 0 16h80a8 8 0 0 0 0-16z"/><path d="m160 336h32a8 8 0 0 0 0-16h-32a8 8 0 0 0 0 16z"/><path d="m256 320h-32a8 8 0 0 0 0 16h32a8 8 0 0 0 0-16z"/><path d="m384 224h-24a8 8 0 0 0 0 16h24a8 8 0 0 0 0-16z"/><path d="m384 176h-144a8 8 0 0 0 0 16h144a8 8 0 0 0 0-16z"/><path d="m272 272h-112a8 8 0 0 0 0 16h112a8 8 0 0 0 0-16z"/><path d="m160 240h168a8 8 0 0 0 0-16h-168a8 8 0 0 0 0 16z"/><path d="m400 328v-8a56 56 0 0 0 -112 0v8a8 8 0 0 0 -8 8v88a8 8 0 0 0 8 8h112a8 8 0 0 0 8-8v-88a8 8 0 0 0 -8-8zm-96-8a40 40 0 0 1 80 0v8h-16v-8a24 24 0 0 0 -48 0v8h-16zm48 8h-16v-8a8 8 0 0 1 16 0zm40 88h-96v-72h96z"/></svg>